<?xml version="1.0" encoding="UTF-8" standalone="no"?>
<svg width="261px" height="312px" viewBox="0 0 261 312" version="1.1" xmlns="http://www.w3.org/2000/svg" xmlns:xlink="http://www.w3.org/1999/xlink">
    <!-- Generator: Sketch 3.6.1 (26313) - http://www.bohemiancoding.com/sketch -->
    <title>icon</title>
    <desc>Created with Sketch.</desc>
    <defs>
        <filter x="-50%" y="-50%" width="200%" height="200%" filterUnits="objectBoundingBox" id="filter-1">
            <feOffset dx="5" dy="5" in="SourceAlpha" result="shadowOffsetOuter1"></feOffset>
            <feGaussianBlur stdDeviation="4" in="shadowOffsetOuter1" result="shadowBlurOuter1"></feGaussianBlur>
            <feColorMatrix values="0 0 0 0 0   0 0 0 0 0   0 0 0 0 0  0 0 0 0.35 0" in="shadowBlurOuter1" type="matrix" result="shadowMatrixOuter1"></feColorMatrix>
            <feMerge>
                <feMergeNode in="shadowMatrixOuter1"></feMergeNode>
                <feMergeNode in="SourceGraphic"></feMergeNode>
            </feMerge>
        </filter>
        <filter x="-50%" y="-50%" width="200%" height="200%" filterUnits="objectBoundingBox" id="filter-2">
            <feOffset dx="5" dy="5" in="SourceAlpha" result="shadowOffsetOuter1"></feOffset>
            <feGaussianBlur stdDeviation="4" in="shadowOffsetOuter1" result="shadowBlurOuter1"></feGaussianBlur>
            <feColorMatrix values="0 0 0 0 0   0 0 0 0 0   0 0 0 0 0  0 0 0 0.35 0" in="shadowBlurOuter1" type="matrix" result="shadowMatrixOuter1"></feColorMatrix>
            <feMerge>
                <feMergeNode in="shadowMatrixOuter1"></feMergeNode>
                <feMergeNode in="SourceGraphic"></feMergeNode>
            </feMerge>
        </filter>
        <filter x="-50%" y="-50%" width="200%" height="200%" filterUnits="objectBoundingBox" id="filter-3">
            <feOffset dx="5" dy="5" in="SourceAlpha" result="shadowOffsetOuter1"></feOffset>
            <feGaussianBlur stdDeviation="5" in="shadowOffsetOuter1" result="shadowBlurOuter1"></feGaussianBlur>
            <feColorMatrix values="0 0 0 0 0   0 0 0 0 0   0 0 0 0 0  0 0 0 0.35 0" in="shadowBlurOuter1" type="matrix" result="shadowMatrixOuter1"></feColorMatrix>
            <feMerge>
                <feMergeNode in="shadowMatrixOuter1"></feMergeNode>
                <feMergeNode in="SourceGraphic"></feMergeNode>
            </feMerge>
        </filter>
        <linearGradient x1="70.478004%" y1="8.07431363%" x2="27.6973903%" y2="100%" id="linearGradient-4">
            <stop stop-color="#4990E2" offset="0%"></stop>
            <stop stop-color="#5289BB" offset="44.5013552%"></stop>
            <stop stop-color="#617D79" offset="49.6811224%"></stop>
            <stop stop-color="#92D944" offset="60.9856679%"></stop>
            <stop stop-color="#92D944" offset="100%"></stop>
        </linearGradient>
        <linearGradient x1="25.8460682%" y1="69.7469764%" x2="89.0080504%" y2="18.722569%" id="linearGradient-5">
            <stop stop-color="#79CA40" offset="0%"></stop>
            <stop stop-color="#619BDF" offset="100%"></stop>
        </linearGradient>
    </defs>
    <g id="Page-1" stroke="none" stroke-width="1" fill="none" fill-rule="evenodd">
        <path d="M68.4034485,137.332866 C70.3397015,127.01894 80.2757741,117.087205 90.5843594,115.151955 L196.364272,95.2936893 C206.678198,93.3574363 213.928814,100.212167 212.556781,110.620821 L197.722803,223.155775 C196.351753,233.556969 186.815923,243.099276 176.407269,244.471309 L63.8723151,259.305287 C53.4711209,260.676337 46.6099328,253.421364 48.5451832,243.112778 L68.4034485,137.332866 Z" id="Rectangle-1-Copy-2" fill="#9B9B9B" filter="url(#filter-1)" transform="translate(130.470964, 177.219056) rotate(45.000000) translate(-130.470964, -177.219056) "></path>
        <path d="M68.4034485,111.332866 C70.3397015,101.01894 80.2757741,91.087205 90.5843594,89.1519546 L196.364272,69.2936893 C206.678198,67.3574363 213.928814,74.2121675 212.556781,84.6208211 L197.722803,197.155775 C196.351753,207.556969 186.815923,217.099276 176.407269,218.471309 L63.8723151,233.305287 C53.4711209,234.676337 46.6099328,227.421364 48.5451832,217.112778 L68.4034485,111.332866 Z" id="Rectangle-1-Copy" fill="#4990E2" opacity="0.850000024" filter="url(#filter-2)" transform="translate(130.470964, 151.219056) rotate(45.000000) translate(-130.470964, -151.219056) "></path>
        <path d="M68.4034485,84.3328655 C70.3397015,74.0189397 80.2757741,64.087205 90.5843594,62.1519546 L196.364272,42.2936893 C206.678198,40.3574363 213.928814,47.2121675 212.556781,57.6208211 L197.722803,170.155775 C196.351753,180.556969 186.815923,190.099276 176.407269,191.471309 L63.8723151,206.305287 C53.4711209,207.676337 46.6099328,200.421364 48.5451832,190.112778 L68.4034485,84.3328655 Z" id="Rectangle-1" fill-opacity="0.850000024" fill="#7ED321" opacity="0.99000001" filter="url(#filter-3)" transform="translate(130.470964, 124.219056) rotate(45.000000) translate(-130.470964, -124.219056) "></path>
        <path d="M160.85394,146.033767 C153.140314,151.919754 142.39039,155.571697 130.5,155.571697 C107.027898,155.571697 88,141.340688 88,123.785848 C88,120.260979 88.767155,116.870118 90.1834041,113.701563 C93.6876432,112.192687 99.0694076,109.553868 103.890373,108.562898 C99.5683123,112.782434 97,118.059822 97,123.785848 C97,137.623192 111.998461,148.840576 130.5,148.840576 C138.367655,148.840576 145.601842,146.812115 151.318595,143.416316 C157.05382,146.387321 157.099845,146.370249 160.85394,146.033767 Z M167.991792,138.768646 C171.187707,134.304691 173,129.203557 173,123.785848 C173,106.231009 153.972102,92 130.5,92 C118.547218,92 107.746902,95.6903685 100.024884,101.630771 C102.378626,101.70629 105.475308,102.317797 109.542947,103.849697 C109.676967,103.90017 109.810101,103.950918 109.942359,104.001936 C115.617576,100.698563 122.751582,98.7311208 130.5,98.7311208 C149.001539,98.7311208 164,109.948504 164,123.785848 C164,129.330503 161.591813,134.454491 157.515025,138.604673 C161.881364,138.834197 165.971262,138.425481 167.991792,138.768646 Z" id="Combined-Shape-Copy-2" fill="#4A4A4A"></path>
        <path d="M160.85394,146.033767 C153.140314,151.919754 142.39039,155.571697 130.5,155.571697 C107.027898,155.571697 88,141.340688 88,123.785848 C88,120.260979 88.767155,116.870118 90.1834041,113.701563 C93.6876432,112.192687 99.0694076,109.553868 103.890373,108.562898 C99.5683123,112.782434 97,118.059822 97,123.785848 C97,137.623192 111.998461,148.840576 130.5,148.840576 C138.367655,148.840576 145.601842,146.812115 151.318595,143.416316 C157.05382,146.387321 157.099845,146.370249 160.85394,146.033767 Z M167.991792,138.768646 C171.187707,134.304691 173,129.203557 173,123.785848 C173,106.231009 153.972102,92 130.5,92 C118.547218,92 107.746902,95.6903685 100.024884,101.630771 C102.378626,101.70629 105.475308,102.317797 109.542947,103.849697 C109.676967,103.90017 109.810101,103.950918 109.942359,104.001936 C115.617576,100.698563 122.751582,98.7311208 130.5,98.7311208 C149.001539,98.7311208 164,109.948504 164,123.785848 C164,129.330503 161.591813,134.454491 157.515025,138.604673 C161.881364,138.834197 165.971262,138.425481 167.991792,138.768646 Z" id="Combined-Shape" fill="url(#linearGradient-4)" opacity="0.507695896"></path>
        <path d="M113.191361,141.250622 C117.989859,143.998007 123.990034,145.630432 130.5,145.630432 C136.647522,145.630432 142.340438,144.174718 146.996111,141.699048 C138.741664,137.244295 139.956141,135.729301 131.406529,127.864008 C128.365382,129.65098 121.485311,132.734877 115.839903,138.322874 C114.83299,139.319546 113.955599,140.30104 113.191361,141.250622 Z M108.221602,137.609878 C104.327892,133.964936 102,129.343396 102,124.315216 C102,118.401355 105.220204,113.050006 110.420735,109.188474 C116.495274,111.201841 119.845555,116.73129 127.427106,124.154218 C118.303216,128.065378 114.308167,132.264587 109.149886,136.7537 C108.824116,137.037209 108.514972,137.322845 108.221602,137.609878 Z M132.736809,122.505957 C127.977654,117.54973 123.864327,111.358832 114.615186,106.615195 C119.154013,104.332234 124.618985,103 130.5,103 C146.240115,103 159,112.543147 159,124.315216 C159,129.706046 156.324207,134.629463 151.911766,138.38308 C150.887354,138.136845 149.891008,137.819908 148.947386,137.41315 C141.778616,134.322976 142.709414,131.173317 135.607189,125.21928 C135.183287,124.863908 134.770987,124.496997 134.3672,124.119981 C134.612874,123.169751 134.33357,122.398184 132.736809,122.505957 Z" id="Combined-Shape-Copy" fill="#4A4A4A"></path>
        <path d="M113.191361,141.250622 C117.989859,143.998007 123.990034,145.630432 130.5,145.630432 C136.647522,145.630432 142.340438,144.174718 146.996111,141.699048 C138.741664,137.244295 139.956141,135.729301 131.406529,127.864008 C128.365382,129.65098 121.485311,132.734877 115.839903,138.322874 C114.83299,139.319546 113.955599,140.30104 113.191361,141.250622 Z M108.221602,137.609878 C104.327892,133.964936 102,129.343396 102,124.315216 C102,118.401355 105.220204,113.050006 110.420735,109.188474 C116.495274,111.201841 119.845555,116.73129 127.427106,124.154218 C118.303216,128.065378 114.308167,132.264587 109.149886,136.7537 C108.824116,137.037209 108.514972,137.322845 108.221602,137.609878 Z M132.736809,122.505957 C127.977654,117.54973 123.864327,111.358832 114.615186,106.615195 C119.154013,104.332234 124.618985,103 130.5,103 C146.240115,103 159,112.543147 159,124.315216 C159,129.706046 156.324207,134.629463 151.911766,138.38308 C150.887354,138.136845 149.891008,137.819908 148.947386,137.41315 C141.778616,134.322976 142.709414,131.173317 135.607189,125.21928 C135.183287,124.863908 134.770987,124.496997 134.3672,124.119981 C134.612874,123.169751 134.33357,122.398184 132.736809,122.505957 Z" id="Combined-Shape" fill="url(#linearGradient-5)" opacity="0.509561567"></path>
    </g>
</svg>